<?xml version="1.0" encoding="UTF-8" standalone="no"?>
<!DOCTYPE svg PUBLIC "-//W3C//DTD SVG 20010904//EN"
              "http://www.w3.org/TR/2001/REC-SVG-20010904/DTD/svg10.dtd">

<svg xmlns="http://www.w3.org/2000/svg"
     width="700pt" height="700pt"
     viewBox="0 0 1177 1177">
  <path id="Selection"
        fill="currentColor" stroke-width="1"
        d="M 565.00,729.00
           C 563.11,738.27 560.69,744.28 557.26,753.00
             554.47,760.07 548.38,771.21 541.96,775.44
             530.38,783.06 514.56,776.37 504.58,769.05
             480.62,751.47 458.49,724.23 443.31,698.83
             443.31,698.83 436.69,686.00 436.69,686.00
             436.69,686.00 425.33,664.00 425.33,664.00
             419.10,649.55 413.39,627.79 413.02,611.99
             412.83,603.67 414.38,596.17 418.82,589.04
             423.30,581.87 427.20,581.28 426.85,576.91
             426.85,576.91 417.21,544.00 417.21,544.00
             410.04,511.28 405.05,484.84 405.00,451.00
             405.00,451.00 404.49,440.58 404.49,440.58
             404.49,401.62 413.38,357.05 432.52,323.04
             437.93,313.41 443.85,303.96 451.50,295.91
             473.67,272.59 509.66,258.03 535.83,284.05
             541.88,290.07 544.50,294.51 548.25,302.00
             552.30,310.10 554.97,314.43 556.57,323.57
             559.64,341.17 558.81,368.44 555.54,386.00
             555.54,386.00 548.06,420.83 548.06,420.83
             544.92,438.36 543.82,453.20 544.00,471.00
             544.10,480.54 546.36,499.41 550.00,508.00
             553.32,502.98 557.53,501.98 563.00,500.17
             574.00,496.52 589.02,495.26 600.66,495.33
             623.46,495.47 650.96,499.95 672.00,508.67
             681.39,512.56 692.09,520.31 689.46,532.00
             688.76,535.13 686.47,539.32 684.70,542.00
             681.54,546.80 677.01,551.30 672.98,555.42
             665.80,562.77 656.95,568.41 648.42,574.00
             638.91,580.24 621.31,589.05 610.00,590.00
             615.04,595.62 625.10,601.17 632.00,604.45
             647.50,611.82 659.24,615.93 676.00,619.51
             676.00,619.51 699.96,622.74 699.96,622.74
             702.30,623.69 703.96,625.52 704.90,627.85
             707.18,633.52 702.39,638.04 697.04,638.76
             692.51,639.37 671.04,635.78 666.00,634.53
             666.00,634.53 647.00,629.46 647.00,629.46
             621.49,620.39 591.51,602.92 574.00,582.00
             578.21,605.42 578.62,629.32 577.07,653.00
             575.81,672.34 573.96,694.30 569.00,713.00
             569.00,713.00 584.00,719.90 584.00,719.90
             584.00,719.90 609.00,730.30 609.00,730.30
             632.31,738.60 671.25,746.96 696.00,747.00
             696.00,747.00 717.00,747.00 717.00,747.00
             728.89,746.98 759.58,743.53 770.17,739.51
             781.67,735.14 789.76,725.56 795.48,715.00
             798.39,709.65 798.58,703.98 803.02,700.79
             805.60,698.93 821.44,698.77 826.00,697.98
             832.29,696.89 842.26,693.60 848.00,690.75
             848.00,690.75 857.00,686.00 857.00,686.00
             857.00,686.00 855.00,670.00 855.00,670.00
             833.31,683.45 811.65,685.63 787.00,682.00
             787.00,682.00 788.14,693.04 788.14,693.04
             788.76,701.51 782.10,706.26 776.21,702.14
             770.34,698.03 771.07,688.20 769.62,682.00
             767.66,673.57 761.19,667.90 753.09,665.46
             741.74,662.05 729.82,665.17 718.45,666.55
             718.45,666.55 697.66,667.66 697.66,667.66
             670.59,667.26 644.11,661.69 619.00,651.66
             610.28,648.18 599.01,642.81 591.00,638.00
             587.07,635.64 582.38,633.10 581.86,628.00
             581.23,621.92 587.57,618.10 593.00,619.71
             593.00,619.71 606.00,626.88 606.00,626.88
             606.00,626.88 629.91,637.84 629.91,637.84
             646.22,644.78 675.13,650.81 693.00,651.00
             693.00,651.00 723.98,648.88 723.98,648.88
             723.98,648.88 736.42,647.31 736.42,647.31
             746.51,647.10 757.73,648.06 766.83,652.65
             773.75,656.13 778.89,663.70 781.30,664.81
             781.30,664.81 796.00,666.00 796.00,666.00
             788.22,653.48 779.85,644.91 766.00,639.19
             755.70,634.94 750.22,636.80 746.14,633.48
             740.23,628.67 742.40,619.95 750.99,619.12
             755.99,618.64 762.82,620.45 767.58,622.00
             782.98,627.03 795.59,635.50 804.84,649.00
             809.23,655.43 812.55,658.94 813.00,667.00
             822.21,664.94 833.58,663.26 842.00,658.88
             847.62,655.96 855.38,648.19 861.96,649.24
             866.09,649.90 867.64,653.33 868.76,656.96
             868.76,656.96 872.65,678.99 872.65,678.99
             873.42,682.86 874.85,689.10 873.26,692.83
             871.75,696.38 867.31,698.37 864.28,700.53
             856.23,706.28 843.17,712.11 833.29,713.56
             833.29,713.56 821.75,715.59 821.75,715.59
             819.26,715.83 816.41,715.33 814.30,716.93
             812.07,718.62 808.96,725.94 807.04,728.96
             802.35,736.32 794.65,745.58 786.96,749.74
             786.96,749.74 775.00,755.45 775.00,755.45
             759.26,761.08 724.21,764.15 707.00,764.00
             672.91,763.68 639.26,758.13 607.00,747.08
             594.18,742.69 576.29,736.22 565.00,729.00 Z
           M 535.00,521.00
           C 534.68,514.16 532.17,508.22 530.77,501.57
             528.87,492.56 527.10,476.20 527.00,467.00
             526.79,446.36 530.35,424.22 534.40,404.00
             538.37,384.17 541.84,375.11 542.00,354.00
             542.06,345.25 541.70,328.02 538.93,320.00
             538.93,320.00 531.22,305.00 531.22,305.00
             525.32,294.53 514.13,285.54 501.49,286.42
             471.00,288.54 450.82,320.99 439.54,346.00
             419.95,389.44 417.89,455.40 425.59,502.17
             425.59,502.17 433.70,542.17 433.70,542.17
             433.70,542.17 441.00,569.00 441.00,569.00
             446.60,567.14 455.45,559.98 460.72,556.23
             460.72,556.23 481.83,541.17 481.83,541.17
             498.50,528.90 513.03,517.93 535.00,521.00 Z
           M 487.73,296.89
           C 503.88,294.09 498.88,318.91 491.90,321.99
             486.82,324.24 481.97,321.28 480.82,316.00
             479.49,309.94 482.24,299.98 487.73,296.89 Z
           M 484.00,326.96
           C 496.65,327.28 492.65,338.31 490.19,346.00
             490.19,346.00 485.86,360.00 485.86,360.00
             473.78,400.63 468.31,438.73 477.46,480.71
             477.46,480.71 482.92,503.00 482.92,503.00
             482.92,503.00 485.53,512.00 485.53,512.00
             486.44,517.25 484.79,521.71 478.96,522.44
             471.63,523.35 470.25,517.41 468.49,512.00
             468.49,512.00 459.99,478.80 459.99,478.80
             452.34,443.77 456.79,395.03 467.74,361.04
             467.74,361.04 475.19,338.00 475.19,338.00
             477.47,331.87 476.92,328.91 484.00,326.96 Z
           M 673.00,527.00
           C 673.00,527.00 655.00,520.03 655.00,520.03
             641.74,515.83 617.94,512.02 604.00,512.00
             592.24,511.99 581.87,511.69 570.42,515.00
             566.08,516.26 560.35,518.12 557.75,522.10
             554.33,527.34 559.62,533.75 562.41,538.00
             562.41,538.00 568.31,548.83 568.31,548.83
             572.04,555.07 576.76,560.58 581.42,566.13
             583.99,569.19 589.01,575.33 592.87,576.38
             595.28,577.03 604.21,575.35 607.00,574.78
             620.67,571.98 637.83,561.83 649.17,553.76
             657.51,547.83 670.90,537.29 673.00,527.00 Z
           M 532.00,763.00
           C 543.64,747.83 546.79,734.31 551.41,716.28
             556.50,696.39 560.84,664.53 561.00,644.00
             561.00,644.00 561.62,632.00 561.62,632.00
             561.87,622.15 560.51,598.42 558.39,589.09
             555.26,575.28 553.37,560.52 544.99,548.59
             542.08,544.45 537.92,539.37 533.00,537.70
             530.71,536.92 527.43,536.95 525.00,537.02
             517.01,537.24 512.98,540.86 508.00,541.00
             503.56,545.58 495.42,550.67 490.04,554.59
             490.04,554.59 453.58,581.00 453.58,581.00
             446.12,586.33 435.04,592.50 431.36,601.00
             428.69,607.17 429.69,609.85 429.97,616.00
             430.53,628.26 433.92,639.09 437.93,650.58
             446.01,673.74 462.15,700.72 477.64,719.83
             477.64,719.83 489.37,733.13 489.37,733.13
             500.67,746.04 514.71,759.51 532.00,763.00 Z
           M 724.72,621.54
           C 728.90,621.01 734.06,620.35 737.35,623.65
             741.41,627.72 740.45,636.13 731.28,637.79
             727.14,638.20 716.51,639.69 712.94,637.79
             708.24,635.83 705.15,628.04 711.30,623.94
             714.68,621.68 720.61,622.04 724.72,621.54 Z
           M 582.04,695.66
           C 588.15,694.66 591.50,697.16 597.00,699.40
             597.00,699.40 620.00,707.58 620.00,707.58
             645.86,714.99 674.14,720.50 701.15,720.14
             706.75,720.07 718.76,718.95 722.60,722.57
             726.69,726.41 725.64,733.29 720.71,735.66
             717.52,737.19 699.27,736.98 694.96,736.79
             663.63,735.40 631.61,730.16 602.00,719.62
             597.81,718.13 581.98,711.93 579.39,709.44
             574.16,704.42 575.71,698.52 582.04,695.66 Z
           M 745.00,717.61
           C 755.64,718.27 757.03,727.44 752.24,731.83
             749.73,734.13 742.37,734.92 738.98,734.93
             730.70,734.95 728.48,726.70 731.74,722.21
             734.75,718.06 740.39,718.02 745.00,717.61 Z" />
</svg>
