<?xml version="1.0" encoding="UTF-8"?>
<svg width="700pt" height="700pt" version="1.1" viewBox="0 0 700 700" xmlns="http://www.w3.org/2000/svg" xmlns:xlink="http://www.w3.org/1999/xlink">
 <g>
  <path d="m550.21 60.898c-7.9805-10.898-51.504-0.28125-53.355 0.17969-63.328 15.664-101.29 48.148-122.68 104.94-26.309-26.07-56.523-35.133-96.875-29.312-7.3008 1.0547-31.301 5.2109-33.582 14.348-0.75 3.0078 0.46094 6.0273 3.25 8.0703 4.2656 3.1289 8.3008 6.2891 12.246 9.375 16.789 13.148 32.652 25.562 57.758 29.379 4.0586 0.61719 8.5195 0.91016 13.141 0.91016 13.145 0 27.609-2.3828 37.977-6.4883-5.0117 34.152-20.719 111.34-63.664 151.17-16.559-16.695-39.551-27.082-64.949-27.082-50.316 0-91.25 40.668-91.25 90.656s40.934 90.656 91.25 90.656c39.109 0 72.453-24.617 85.41-59.035 11.059 37.695 46.09 65.336 87.551 65.336 50.316 0 91.25-40.668 91.25-90.656 0-37.855-23.496-70.324-56.742-83.879 8.0234-64.234-37.457-120.59-58.098-142.45 2.7812 0.375 5.8203 0.57422 9.1016 0.57422 21.984 0 53.758-8.2031 75.82-21.352 33.043-19.691 48.238-46.395 64.328-74.66 3.8281-6.7227 7.7852-13.676 12.043-20.648 3.0508-4.9805 1.0664-8.6758 0.070313-10.035zm-230.67 114.61c11.688 0.49219 31.223 3.0781 39.688 8.0273-10.48 3.1406-26.039 5.4844-40.578 3.2695-22.203-3.375-36.262-14.379-52.539-27.125-2.7539-2.1562-5.5469-4.3438-8.4297-6.5312 5.3242-2.0547 14.715-4.4219 21.219-5.3633 38.289-5.5234 66.441 3.6875 90.918 29.828-11.219-11.375-45.887-13.137-49.812-13.301-3.1719-0.16406-5.6992 2.2734-5.8281 5.3633-0.125 3.0977 2.2734 5.707 5.3633 5.832zm-80.07 311c-44.137 0-80.051-35.645-80.051-79.457s35.91-79.457 80.051-79.457c21.934 0 41.828 8.8164 56.301 23.047-5.9062 4.4023-12.234 8.1758-19.086 11.035-2.8555 1.1914-4.2031 4.4727-3.0117 7.3242 0.89844 2.1484 2.9766 3.4453 5.1719 3.4453 0.71875 0 1.4531-0.14062 2.1562-0.43359 8.0195-3.3477 15.398-7.707 22.207-12.844 10.191 13.332 16.316 29.891 16.316 47.879-0.003906 43.812-35.914 79.461-80.055 79.461zm253.02-73.16c0 43.812-35.91 79.457-80.051 79.457-44.137 0-80.051-35.645-80.051-79.457s35.91-79.457 80.051-79.457c7.6055 0 14.938 1.125 21.91 3.1016-1.8945 9.0273-4.9414 18.172-9.5156 27.359-1.3789 2.7695-0.25 6.1289 2.5156 7.5078 0.80469 0.39844 1.6562 0.58984 2.4922 0.58984 2.0586 0 4.0391-1.1367 5.0195-3.1016 4.7695-9.582 8.0508-19.109 10.156-28.504 27.934 12.406 47.473 40.211 47.473 72.504zm-56.41-87.461c-7.5547-2.0195-15.453-3.1953-23.641-3.1953-39.109 0-72.449 24.617-85.406 59.035-3.207-10.918-8.4414-20.957-15.25-29.758 46.559-42.699 62.637-123.38 67.586-158.69 18.387 19.039 63.059 72.164 56.711 132.61zm92.289-239.84c-16 28.117-29.82 52.402-60.328 70.582-27.414 16.34-63.414 21.438-78.254 19.617 10.559-19.238 56.781-41.918 74.27-49.242 2.8516-1.1914 4.1953-4.4727 3.0039-7.3281-1.1875-2.8477-4.4688-4.1953-7.3242-3.0039-5.8047 2.4258-48.914 20.906-70.664 42.539 20.652-46.379 55.258-73.602 110.48-87.258 12.699-3.1406 32.133-5.5117 39.648-4.5547-3.8164 6.3359-7.375 12.586-10.828 18.648z"
    fill="currentColor"/>
  <path d="m190.36 393.13c0.83984-2.9766-0.89453-6.0703-3.8711-6.9102-2.9766-0.85156-6.0703 0.89453-6.9102 3.8711-13.586 48.195 27.441 78.5 27.859 78.801 0.98828 0.71484 2.1367 1.0625 3.2695 1.0625 1.7344 0 3.4414-0.80469 4.5391-2.3164 1.8125-2.5 1.2539-5.9961-1.2383-7.8164-1.4414-1.0469-35.082-26.133-23.648-66.691z"
    fill="currentColor"/>
  <path d="m189.51 376.77c0.84766 0.45703 1.7578 0.67187 2.6562 0.67187 1.9922 0 3.918-1.0625 4.9336-2.9375 1.7812-3.3008 5.5469-6.9375 6.8477-8.0625 2.3398-2.0195 2.6016-5.5547 0.58594-7.8984-2.0195-2.3359-5.5391-2.6016-7.8906-0.59375-0.63281 0.54297-6.3047 5.5078-9.3984 11.223-1.4688 2.7305-0.45703 6.1289 2.2656 7.5977z"
    fill="currentColor"/>
  <path d="m363.33 399.43c0.83984-2.9766-0.89453-6.0703-3.8711-6.9102-2.9766-0.83594-6.0742 0.89844-6.9102 3.8711-13.586 48.195 27.441 78.5 27.859 78.801 0.99219 0.71484 2.1367 1.0625 3.2734 1.0625 1.7383 0 3.4492-0.80859 4.543-2.3203 1.8125-2.5078 1.2461-6.0078-1.2617-7.8164-0.35156-0.26172-35.121-25.941-23.633-66.688z"
    fill="currentColor"/>
  <path d="m362.48 383.07c0.84766 0.45703 1.7578 0.67188 2.6562 0.67188 1.9922 0 3.918-1.0625 4.9336-2.9375 1.7812-3.3008 5.5469-6.9375 6.8477-8.0625 2.3398-2.0195 2.6016-5.5547 0.58594-7.8984-2.0156-2.3398-5.543-2.6055-7.8906-0.59375-0.63281 0.54297-6.3047 5.5078-9.3984 11.223-1.4648 2.7305-0.45313 6.1289 2.2656 7.5977z"
    fill="currentColor"/>
  <path d="m282.21 380.18c-7.375-0.015626-12.457-1.7812-15.109-5.2422-3.9531-5.1641-1.9102-13.121-1.8711-13.277 0.81641-2.9688-0.92578-6.043-3.8945-6.8711-2.9844-0.84375-6.0664 0.90625-6.8984 3.8867-0.15234 0.53906-3.6094 13.328 3.7031 22.98 4.8672 6.4297 12.957 9.6992 24.051 9.7227h0.011719c3.0859 0 5.5938-2.5 5.6016-5.5898 0.003906-3.0898-2.5-5.6055-5.5938-5.6094z"
    fill="currentColor"/>
  <path d="m423.42 375.53c-5.1797-3.9141-5.375-12.07-5.3789-12.312-0.011719-3.082-2.5117-5.5742-5.5977-5.5781h-0.003906c-3.0898 0-5.5977 2.5039-5.6016 5.5977 0 0.55859 0.10156 13.793 9.7305 21.16 4.0273 3.0781 8.9453 4.6211 14.695 4.6211 3.4062 0 7.1016-0.54297 11.078-1.625 2.9844-0.8125 4.7461-3.8906 3.9336-6.875-0.81641-2.9844-3.9023-4.7539-6.875-3.9336-7.1133 1.9375-12.492 1.5859-15.98-1.0547z"
    fill="currentColor"/>
 </g>
</svg>
