<?xml version="1.0" encoding="UTF-8"?>
<svg width="700pt" height="700pt" version="1.1" viewBox="0 0 700 700" xmlns="http://www.w3.org/2000/svg" xmlns:xlink="http://www.w3.org/1999/xlink">
 <g>
  <path d="m444.3 153.77c12.062-6.332 17.602-18.719 25.781-39.117 10.156-25.309 42.176-44.719 42.496-44.91 1.9844-1.1875 3.0352-3.4766 2.6406-5.7578-0.39844-2.2812-2.1562-4.0859-4.4258-4.5391-63.699-12.691-121.43 11.055-148.16 38.469-5.8164 5.9688-10.027 12.07-12.656 18.062-3.7656-3.8516-8.0898-7.1797-11.551-9.582-23.406-16.234-71.461-34.449-100.72-14.223-1.8164 1.2539-2.7227 3.457-2.3242 5.625s2.0352 3.8984 4.1797 4.4219c4.8242 1.1797 18.812 5.2891 25.512 10.082 4.5508 3.2539 5.0039 5.5625 5.7578 9.3828 0.73438 3.7383 1.6445 8.3906 6.3477 13.289 2.2422 2.3359 4.7539 4.0273 7.3086 5.3125-72.055 26.508-123.55 95.41-123.55 176.04 0 103.49 84.816 187.68 189.07 187.68s189.07-84.188 189.07-187.67c0-69.406-38.188-130.09-94.77-162.55zm-73.648-48.035c23.438-24.043 72.34-43.316 124.36-37.426-11.398 8.7227-27.945 23.781-35.324 42.176-10.324 25.73-14.797 33.32-28.633 36.102-2.1172-1.0898-4.7695-2.1484-7.6094-3.1875-4.625-1.9414-9.3672-3.6641-14.172-5.2422 5.9922-4.9531 11.195-12.152 14.074-18.672 5.7695-13.07 23.613-24.152 23.793-24.262 2.6289-1.6211 3.457-5.0664 1.8359-7.7031-1.6172-2.6367-5.0586-3.4727-7.6953-1.8438-0.85156 0.52344-20.996 12.992-28.188 29.289-5.0195 11.363-15.016 18.898-18.004 17.949-0.039063-0.011719-0.078126 0-0.11719-0.011719-11.879-3.5703-24.051-4.2969-35.867-4.2969-0.32422 0-0.65234 0-0.97656 0.003906-0.015625-0.058593-0.039062-0.12109-0.054688-0.17969 0.50391-6.7969 4.8867-14.809 12.578-22.695zm-88.84 13.789c-0.91797-4.6719-2.0625-10.492-10.227-16.332-4.0586-2.9023-9.6406-5.3945-14.859-7.3359 23.828-5.7734 56.465 6.6758 75.32 19.746 7.8047 5.4102 12.008 9.9961 13.996 13.156-2.082 0.042969-4.1641 0.070312-6.2305 0.17969-4.1289 0.097656-8.3711 0.27344-12.621 0.60938-0.046875-0.27344-0.007812-0.54688-0.097656-0.82031-2.2656-6.8672-18.098-16.637-27.34-21.852-2.6914-1.5195-6.1094-0.5625-7.6289 2.125-1.5195 2.6914-0.57031 6.1094 2.1289 7.6328 9.1016 5.1367 18.102 11.355 21.188 14.406-4.0312 0.73828-8 1.7148-11.801 3.0977-1.2031-0.32812-2.5312-0.58594-3.9766-0.86328-4.6992-0.90625-10.551-2.0273-14.406-6.0469-2.4258-2.5312-2.832-4.5898-3.4453-7.7031zm68.191 373.27c-98.078 0-177.87-79.164-177.87-176.47 0-94.086 74.602-171.2 168.2-176.2 1.7344-0.039062 3.4492-0.074218 5.1328-0.10156 2.0273-0.035156 3.9805-0.082032 5.9258-0.13281 17.559 0.13672 34.52 2.7969 50.531 7.6562 2.8398 1.2539 6.6484 2.5625 10.711 3.9414 2.1211 0.71875 4.4492 1.5117 6.6445 2.3086 63.758 26.852 108.59 89.594 108.59 162.53 0 97.301-79.789 176.47-177.87 176.47z"
    fill="currentColor"/>
  <path d="m466.15 223.46c-0.37109-0.45703-0.72266-0.92969-1.1016-1.3789-0.81641-0.96875-1.6719-1.9297-2.5273-2.8945-2.0117-2.2891-4.0742-4.5312-6.2227-6.6953-0.15625-0.15625-0.28125-0.31641-0.4375-0.47266-1.2578-1.5-19.082-22.086-53.781-34.484-16.203-6.0039-33.723-9.3047-52.008-9.3047-0.21094 0-0.38672 0.097657-0.59375 0.12109-0.8125-0.011718-1.5664-0.085937-2.3867-0.085937-1.5 0-2.9297 0.59766-3.9883 1.6641-1.0508 1.0664-1.6289 2.5078-1.6133 4.0039l1.5273 121.88c-1.6641 0.54687-3.2305 1.3242-4.707 2.2617l-86.391-85.645c-0.042969-0.046875-0.058594-0.10938-0.10156-0.15234-1.5469-1.5391-3.7578-1.9258-5.6992-1.2852-0.0625 0.019531-0.12891 0.015625-0.19141 0.039063-0.44531 0.16406-0.83203 0.45703-1.2344 0.73828-0.19141 0.13281-0.41406 0.19531-0.59375 0.35547-0.023437 0.019531-0.11719 0.10937-0.15234 0.14062-0.015625 0.015626-0.035157 0.019532-0.050781 0.035157-0.039063 0.039062-0.074219 0.078125-0.11328 0.11719-1.5391 1.418-9.4258 8.9688-18.109 22.109-13.867 20.699-22.18 44.496-24.234 69.531-0.03125 0.375-0.054687 0.75391-0.082031 1.1328-0.27344 3.6836-0.45703 7.3867-0.45703 11.117 0 32.82 10.828 63.168 29.102 87.742 1.2734 1.7539 2.668 3.4727 4.0547 5.1953 0.35156 0.43359 0.6875 0.87891 1.0469 1.3086 0.50391 0.60938 0.94922 1.2344 1.4648 1.8359 0 0.003907 0.003907 0.003907 0.003907 0.007813 0.98047 1.3125 16.641 21.668 47.312 36.559 1.4453 0.71484 2.9102 1.3945 4.3789 2.0625 0.78516 0.35156 1.5352 0.71094 2.3398 1.0508 16.695 7.2344 34.969 11.504 54.156 12.176 1.0703 0.054688 2.0742 0.1875 3.1602 0.21875 0.007813 0 0.011719 0.003907 0.015625 0.003907 0.32812 0.023437 1.668 0.089843 3.8516 0.089843 13.914 0 62.074-2.8945 100.32-40.266 0.003906-0.003906 0.007813-0.003906 0.015625-0.007812 0.39844-0.35156 2.9102-2.6211 6.5-6.5898 25.082-26.449 40.52-62.008 40.594-101.1 0.32031-3.5195 3.4414-48.789-33.066-93.129zm-253.91 87.184c1.543-36.531 17.648-63.617 28.777-78.152 0.26953-0.34375 0.52734-0.6875 0.80078-1.0273 0.41797-0.53516 0.82813-1.0469 1.2305-1.5469 1.5781-1.9219 3.2266-3.7969 4.9219-5.6406l82.691 81.98c-0.14844 0.27734-0.20703 0.59766-0.33984 0.88281-0.42578 0.90625-0.78906 1.8359-1.0859 2.8008-0.09375 0.30078-0.25781 0.57031-0.33984 0.875l-86.164-0.058594-30.492-0.023437v-0.089844zm130.45 142.33c-0.35937-0.019531-0.71484-0.058594-1.0703-0.082031-28.777-2.1445-51.172-11.965-67.062-22.125-0.21094-0.13672-0.42578-0.26562-0.63281-0.40234-0.72266-0.46875-1.3828-0.93359-2.082-1.4023-8.2891-5.6836-15.918-12.238-22.762-19.535l6.8672-6.0703c0.03125-0.027343 0.042969-0.070312 0.074219-0.097656l2.3164-2.0508c2.3125-2.0547 2.5195-5.5938 0.46875-7.9062-2.0625-2.3203-5.6016-2.5234-7.9062-0.47266l-9.1445 8.1133c-0.48828-0.61328-0.98438-1.2227-1.4648-1.8477-21.965-29.273-26.828-63.836-27.883-77.152l116.61 0.082031c0.28516 1.0195 0.64062 2.0039 1.0703 2.9648l-32.836 27.773-6.6133 5.6836c-2.3398 2.0156-2.6094 5.5547-0.58984 7.8984 1.1055 1.2891 2.668 1.9492 4.2422 1.9492 1.2969 0 2.5938-0.44531 3.6523-1.3516l39.145-33.199c1.8125 1.3594 3.793 2.4766 5.9609 3.1797zm7.3555-126.06c-0.34375-0.085938-0.69922-0.14062-1.0625-0.16406-2.8438-0.16016-5.5195-1.5938-7.3281-4.0586-1.4883-1.832-2.2734-4-2.2734-6.3555 0-2.6133 0.95312-5.0898 2.7188-7.0234 1.832-2.0547 4.2227-3.2266 6.9141-3.3906 0.35547-0.023437 0.70703-0.078124 1.0508-0.16406h0.023438c2.7188 0 5.2773 0.98828 7.3047 2.8828 2.0547 1.8164 3.2812 4.4531 3.3906 7.2812-0.050781 0.27734-0.078124 0.55469-0.082031 0.83594-0.054687 2.918-1.3945 5.6914-3.8711 7.6602-1.7461 1.5664-4.0586 2.4492-6.7852 2.4961zm3.8438 126.17 0.26172-82.602 0.10547-32.758c1.0547-0.20312 2.082-0.5 3.0859-0.85547 0.45312-0.16016 0.875-0.36328 1.3164-0.55078 0.37109-0.16016 0.75781-0.28906 1.1211-0.46875l80.539 83.855c-23.316 20.051-53.438 32.48-86.43 33.379zm94.977-41.383c-0.11719 0.12109-0.23047 0.24219-0.34766 0.36328l-80.273-83.578c0.39062-0.57031 0.69922-1.1914 1.0273-1.7969 0.15234-0.27734 0.32812-0.53516 0.46875-0.81641 0.53906-1.1016 1-2.2383 1.3398-3.4258l116.51-0.50781c-4.457 48.344-28.887 79.152-38.727 89.762zm-77.535-100.46c-0.54688-2.2695-1.4883-4.3867-2.7031-6.3359l38.438-37.695c2.2109-2.1641 2.2422-5.7109 0.078126-7.918-2.1641-2.2109-5.7188-2.2422-7.918-0.078125l-38.773 38.027c-1.957-1.0586-4.0352-1.8828-6.2461-2.3008l-1.4492-115.38c21.52 0.74609 39.395 5.6914 53.621 11.84 1 0.44531 2.0078 0.875 2.9922 1.3438 0.23828 0.10938 0.46484 0.21875 0.69922 0.32812 12.277 5.9102 23.535 13.578 33.457 22.664l-10.711 10.5c-2.2109 2.1641-2.2422 5.7109-0.078124 7.9219 2.1602 2.207 5.6992 2.2344 7.918 0.078125l10.82-10.605c0.13281 0.14062 0.27344 0.27734 0.40625 0.42188 1.6289 1.7656 3.1719 3.5391 4.6602 5.3164 18.543 22.316 30.086 50.543 31.336 81.359z"
    fill="currentColor"/>
  <path d="m299.99 188.05c0.79688 0 1.6133-0.17188 2.3906-0.53906 5.582-2.6367 14.016-5.3047 20.266-5.3047 3.0938 0 5.6016-2.5078 5.6016-5.6016s-2.5039-5.6016-5.6016-5.6016c-8.5273 0-18.535 3.293-25.059 6.3828-2.793 1.3203-3.9883 4.6602-2.668 7.457 0.95703 2.0234 2.9688 3.207 5.0703 3.207z"
    fill="currentColor"/>
  <path d="m271.47 374.36-1.0234 0.86328c-2.3633 1.9922-2.668 5.5234-0.67187 7.8867 1.1055 1.3164 2.6914 1.9922 4.2891 1.9922 1.2695 0 2.5547-0.43359 3.6055-1.3164l1.0234-0.86328c2.3633-1.9922 2.668-5.5234 0.67188-7.8867-1.9883-2.3633-5.5273-2.6797-7.8945-0.67578z"
    fill="currentColor"/>
  <path d="m275.74 201.21c1.2695 0 2.5547-0.43359 3.6055-1.3164l1.0234-0.86328c2.3633-1.9922 2.668-5.5234 0.67187-7.8867-1.9844-2.3633-5.5234-2.6797-7.8906-0.67578l-1.0234 0.85938c-2.3633 1.9922-2.668 5.5234-0.67188 7.8867 1.1055 1.3164 2.6914 1.9961 4.2852 1.9961z"
    fill="currentColor"/>
  <path d="m416.35 241.95-1.0234 0.86328c-2.3633 1.9922-2.668 5.5234-0.67188 7.8867 1.1055 1.3164 2.6914 1.9922 4.2891 1.9922 1.2695 0 2.5547-0.43359 3.6055-1.3164l1.0234-0.86328c2.3633-1.9922 2.668-5.5234 0.67188-7.8867-1.9883-2.3633-5.5273-2.6797-7.8945-0.67578z"
    fill="currentColor"/>
 </g>
</svg>
