<?xml version="1.0" encoding="UTF-8"?>
<svg width="700pt" height="700pt" version="1.1" viewBox="0 0 700 700" xmlns="http://www.w3.org/2000/svg" xmlns:xlink="http://www.w3.org/1999/xlink">
 
 <g>
  <path d="m423.17 393.29-2.3828-0.84766c-3.0078-1.1016-5.9648-2.3047-8.875-3.6133-2.8242-1.2695-6.1367-0.011719-7.4062 2.8125-1.2695 2.8203-0.007812 6.1367 2.8125 7.4062 3.1523 1.418 6.3633 2.7227 9.6289 3.9141l2.5312 0.90625c0.058594 0.019531 0.11719 0.011718 0.17188 0.03125 0.046874 0.015624 0.074218 0.054687 0.12109 0.070312 0.003907 0 0.10938 0.035156 0.11328 0.039062l0.023438-0.066406c0.47266 0.125 0.94531 0.24219 1.4141 0.24219 2.3164 0 4.4805-1.4492 5.2891-3.7578 1.0195-2.9219-0.51953-6.1133-3.4414-7.1367z"
  fill="currentColor"/>
  <path d="m507.47 461.61c-1.2578-1.4727-3.1914-2.1719-5.1055-1.8906l-2.6172 0.40625c-11.691 1.7539-23.5 0.30078-34.418-4.168 0.82031-5.5781 0.83203-11.219-0.035156-16.832-0.57812-3.7344-1.4805-7.2734-2.6641-10.438-4.3398-12.164-12.836-22.57-23.926-29.289-2.6367-1.6094-6.0859-0.76172-7.6875 1.8828-1.6055 2.6484-0.76172 6.0898 1.8867 7.6914 8.8906 5.3906 15.703 13.727 19.207 23.551 0.94141 2.5312 1.6562 5.3242 2.1172 8.3047 0.49219 3.2109 0.64453 6.4375 0.44922 9.6445-1.1641-0.73828-2.2617-1.6094-3.3867-2.4258-0.95703-0.69531-1.957-1.3242-2.875-2.0742-0.43359-0.36328-0.98437-0.72266-1.5977-1.0586-0.11719-0.0625-0.24219-0.10938-0.36328-0.16406-0.46094-0.22656-0.94922-0.42188-1.5039-0.57812-0.14844-0.042969-0.30469-0.058594-0.45703-0.09375-0.50391-0.11719-1.0195-0.21484-1.6016-0.24609-0.23438-0.011719-0.47656 0.019531-0.71094 0.023437-0.21875-4.4102-1.3906-8.6016-3.5625-12.41-4.9805-8.8281-15.07-15.734-29.988-20.523-48.844-15.625-75.781-55.961-82.875-67.953-1.5742-2.6562-5.0078-3.5352-7.6719-1.9688-2.6602 1.5742-3.543 5.0078-1.9688 7.6719 7.6016 12.848 36.492 56.086 89.098 72.914 12.145 3.8984 20.102 9.0625 23.664 15.379 2.4727 4.3398 2.832 9.4219 1.0859 15.109-0.35547 0.6875-0.75781 1.3477-1.0039 2.1172l-0.64453 2.1641c-0.046875 0.12109-0.10547 0.23828-0.14062 0.36328l-0.86719 2.9375-0.67578 2.2148c-0.90625 2.957 0.75781 6.0898 3.7148 6.9922 0.023438 0.007813 0.046875 0.003906 0.066406 0.011719 0.003906 0 0.007813 0.003906 0.011719 0.007812 0.023437 0.007813 0.046875 0 0.070313 0.007813 0.5 0.14062 0.99609 0.22656 1.4922 0.22656 0.13281 0 0.25391-0.050781 0.38281-0.0625 0.24609-0.015625 0.47266-0.066406 0.71484-0.11328 0.40234-0.082031 0.78125-0.19922 1.1523-0.36328 0.25781-0.11328 0.5-0.22656 0.73828-0.37891 0.31641-0.19922 0.58594-0.44922 0.85547-0.71094 0.21094-0.20312 0.43359-0.37891 0.61328-0.61719 0.29688-0.39453 0.51172-0.85156 0.69922-1.3281 0.0625-0.16016 0.18359-0.27734 0.23438-0.44531l0.65234-2.207 0.78906-2.5781c0.51562-1.2188 1.0273-2.4844 1.4922-3.8164 0.47266-0.5625 1.0078-0.95703 1.4492-1.2109 0.058594-0.03125 0.13281-0.09375 0.1875-0.12109 0.76563 0.60547 1.582 1.0938 2.3594 1.6641 2.3164 1.707 4.7031 3.2695 7.168 4.6914 1.6914 0.98047 3.375 1.9883 5.1016 2.8125 12.109 5.8828 25.359 8.4688 38.672 7.5352l-4.2656 13.473c-14.238 1.8594-28.75-0.98047-41.223-8.1367-0.17969-0.10156-0.37891-0.10547-0.5625-0.1875-0.30469-0.13281-0.60156-0.23438-0.92187-0.30859-0.40625-0.097656-0.79688-0.16406-1.207-0.16797-0.29688-0.003906-0.57812 0.023438-0.875 0.0625-0.41406 0.058594-0.80078 0.14844-1.1914 0.29688-0.28516 0.10938-0.54688 0.24609-0.8125 0.40234-0.35938 0.21094-0.67969 0.44531-0.98828 0.73438-0.125 0.11328-0.28125 0.16797-0.39453 0.29297-3.9375 4.375-8.7227 7.875-14.383 10.48-3.6875 1.8359-7.8203 3.1211-12.289 3.8047-8.9375 1.3594-27.012-5.4414-33.758-7.9961-22.719-8.8125-43.949-21.141-63.109-36.652-17.367-14.008-32.527-30.469-45.285-48.828 7.5195-9.2227 14.836-19.422 21.266-29.484 8.2617-12.93 23.805-39.438 30.922-65.734 0.47266 1.7578 0.88281 3.5352 1.418 5.2734 10.785 34.957 34.273 64.383 66.145 82.855 0.88281 0.51172 1.8477 0.75391 2.8047 0.75391 1.9336 0 3.8125-1 4.8516-2.793 1.5508-2.6758 0.64062-6.1016-2.0352-7.6523-23.199-13.449-41.48-33.238-53.098-56.793 7.5742 2.0352 16.113 2.9375 24.742 2.9375 19.883 0 40.219-4.7578 50.164-11.281 6.8906-4.5195 7.8789-9.3086 7.4961-12.516-1.2188-10.371-17.953-24.598-25.094-30.238-18.301-14.441-46.492-30.504-65.785-28.223-1.293 0.14844-2.4336 0.44141-3.5742 0.73047 5.8359-28.023 19.312-51.312 46.93-83.762 5.7773-5.8867 25.809-37.168 27.285-55.23 1.6641-20.332-3.168-35.102-14.367-43.895-11.707-9.1953-30.039-10.605-50.301-3.8633-10.773 3.582-26.195 13.672-33.707 19.691-51.566 41.363-78.238 116.41-86.004 172.84-0.046874 0.33594 0.046876 0.64844 0.0625 0.97656l-0.38672 0.058593h-0.003906c-8.793 1.3516-16.594 6.8867-20.867 14.805-22.445 41.551-9.0039 125.02 11.023 153.43 6.3047 8.9453 12.355 11.18 16.832 11.18 0.71875 0 1.3984-0.058594 2.0312-0.15625 9.2617-1.4258 21.492-11.48 33.773-25.152 13.02 18.266 28.289 34.723 45.723 48.781 20.059 16.234 42.297 29.148 66.141 38.398 11.879 4.4922 25.066 8.9102 35.188 8.9102 1.5 0 2.9297-0.09375 4.2773-0.30469 5.6211-0.86328 10.859-2.4961 15.426-4.7773 5.5234-2.5391 10.449-5.9023 14.75-9.9609 10.711 5.3672 22.516 8.1523 34.434 8.1523 4.6172 0 9.25-0.41406 13.84-1.2578 2.0352-0.37109 3.707-1.8398 4.3281-3.8164l7.9414-25.078c0.58984-1.8477 0.17969-3.8633-1.082-5.3359zm-168.39-204.24c14.863-1.7773 39.605 11.742 57.543 25.895 14.645 11.559 20.598 20.086 20.949 22.285-0.29688 0.73828-3.0273 3.4883-11.355 6.332-19.441 6.625-50.156 7.875-65.969-0.5625-0.64453-1.8125-1.3867-3.582-1.957-5.4297-1.9727-6.3867-3.4844-12.957-4.5-19.527-0.86328-5.6016-1.0664-16.281-0.96094-25.648 0.13672-0.1875 0.32812-0.3125 0.44531-0.52344 0.47266-0.85547 1.2656-2.293 5.8047-2.8203zm-22.031-168.71c6.9258-5.5547 21.285-14.832 30.234-17.805 16.637-5.5312 31.156-4.7812 39.852 2.0469 8.0547 6.3242 11.461 17.824 10.121 34.176-1.2539 15.301-20.504 44.855-23.652 47.91-0.32422 0.24219-0.61719 0.52344-0.87891 0.83203-31.727 37.254-45.77 63.191-50.977 96.926-6.7734-7.2266-16.965-8.8086-27.781-9.6094-0.42188-0.035156-0.84375-0.015624-1.2617 0.050782l-57.203 8.7969c9.7852-67.391 41.629-131.31 81.547-163.32zm-86.02 333.32c-1.9688 0.28516-5.0156-2.1602-8.0078-6.4102-18.496-26.238-30.355-104.58-10.324-141.66 2.6562-4.918 7.2891-8.2188 12.719-9.0547l68.355-10.512c17.668 1.3789 22.492 4.8555 24.414 17.316 3.207 20.832-8.8945 55.207-32.375 91.961-22.148 34.66-45.246 56.891-54.781 58.355z"
  fill="currentColor"/>
  <path d="m286.06 393.54c-2.418 1.9297-2.8203 5.4492-0.89062 7.8711 28.238 35.457 63.16 56.422 87.477 67.766 0.76562 0.35938 1.5703 0.52344 2.3672 0.52344 2.1094 0 4.1289-1.1953 5.0781-3.2305 1.3086-2.8047 0.09375-6.1367-2.707-7.4414-23.234-10.836-56.57-30.84-83.453-64.594-1.9297-2.4258-5.4531-2.8125-7.8711-0.89453z"
  fill="currentColor"/>
  <path d="m395.6 478.34c0.52734 0.16016 1.0625 0.23047 1.5859 0.23047 2.418 0 4.6445-1.5742 5.3672-4.0078 0.87891-2.9609-0.80469-6.0742-3.7656-6.9609-0.10156-0.03125-2.3203-0.69531-6.1328-2.1211-2.8867-1.0781-6.125 0.39062-7.207 3.2891-1.082 2.8984 0.39062 6.125 3.2891 7.207 4.3711 1.625 6.8633 2.3633 6.8633 2.3633z"
  fill="currentColor"/>
  <path d="m356.34 103.3c2.2227-2.1562 2.2773-5.6992 0.125-7.918-2.1562-2.2266-5.7031-2.2773-7.918-0.125-31.496 30.531-62.988 65.629-71.836 128.89-0.42969 3.0625 1.707 5.8945 4.7695 6.3203 0.26172 0.039063 0.52344 0.054688 0.78516 0.054688 2.75 0 5.1445-2.0234 5.5352-4.8242 8.3555-59.742 38.441-93.23 68.539-122.4z"
  fill="currentColor"/>
  <path d="m362.36 91.738c1.6797 0 3.3398-0.75 4.4414-2.1875 1.7734-2.3047 3.4336-4.4414 4.9531-6.3828 1.9023-2.4375 1.4727-5.957-0.96484-7.8633-2.4336-1.9023-5.957-1.4766-7.8633 0.96484-1.5352 1.9648-3.2148 4.125-5.0078 6.457-1.8828 2.4492-1.4258 5.9648 1.0273 7.8516 1.0195 0.78125 2.2227 1.1602 3.4141 1.1602z"
  fill="currentColor"/>
 </g>
</svg>
