<?xml version="1.0" encoding="UTF-8"?>
<svg width="700pt" height="700pt" version="1.1" viewBox="0 0 700 700" xmlns="http://www.w3.org/2000/svg" xmlns:xlink="http://www.w3.org/1999/xlink">
 <defs>
  <symbol id="v" overflow="visible">
   <path d="m18.766-1.125c-0.96875 0.5-1.9805 0.875-3.0312 1.125-1.043 0.25781-2.1367 0.39062-3.2812 0.39062-3.3984 0-6.0898-0.94531-8.0781-2.8438-1.9922-1.9062-2.9844-4.4844-2.9844-7.7344 0-3.2578 0.99219-5.8359 2.9844-7.7344 1.9883-1.9062 4.6797-2.8594 8.0781-2.8594 1.1445 0 2.2383 0.13281 3.2812 0.39062 1.0508 0.25 2.0625 0.625 3.0312 1.125v4.2188c-0.98047-0.65625-1.9453-1.1406-2.8906-1.4531-0.94922-0.3125-1.9492-0.46875-3-0.46875-1.875 0-3.3516 0.60547-4.4219 1.8125-1.0742 1.1992-1.6094 2.8555-1.6094 4.9688 0 2.1055 0.53516 3.7617 1.6094 4.9688 1.0703 1.1992 2.5469 1.7969 4.4219 1.7969 1.0508 0 2.0508-0.14844 3-0.45312 0.94531-0.3125 1.9102-0.80078 2.8906-1.4688z"/>
  </symbol>
  <symbol id="c" overflow="visible">
   <path d="m13.734-11.141c-0.4375-0.19531-0.87109-0.34375-1.2969-0.4375-0.41797-0.10156-0.83984-0.15625-1.2656-0.15625-1.2617 0-2.2305 0.40625-2.9062 1.2188-0.67969 0.80469-1.0156 1.9531-1.0156 3.4531v7.0625h-4.8906v-15.312h4.8906v2.5156c0.625-1 1.3438-1.7266 2.1562-2.1875 0.82031-0.46875 1.8008-0.70312 2.9375-0.70312 0.16406 0 0.34375 0.011719 0.53125 0.03125 0.19531 0.011719 0.47656 0.039062 0.84375 0.078125z"/>
  </symbol>
  <symbol id="a" overflow="visible">
   <path d="m17.641-7.7031v1.4062h-11.453c0.125 1.1484 0.53906 2.0078 1.25 2.5781 0.70703 0.57422 1.7031 0.85938 2.9844 0.85938 1.0312 0 2.082-0.14844 3.1562-0.45312 1.082-0.3125 2.1914-0.77344 3.3281-1.3906v3.7656c-1.1562 0.4375-2.3125 0.76562-3.4688 0.98438-1.1562 0.22656-2.3125 0.34375-3.4688 0.34375-2.7734 0-4.9297-0.70312-6.4688-2.1094-1.5312-1.4062-2.2969-3.3789-2.2969-5.9219 0-2.5 0.75391-4.4609 2.2656-5.8906 1.5078-1.4375 3.582-2.1562 6.2188-2.1562 2.4062 0 4.332 0.73047 5.7812 2.1875 1.4453 1.4492 2.1719 3.3828 2.1719 5.7969zm-5.0312-1.625c0-0.92578-0.27344-1.6719-0.8125-2.2344-0.54297-0.57031-1.25-0.85938-2.125-0.85938-0.94922 0-1.7188 0.26562-2.3125 0.79688s-0.96484 1.2969-1.1094 2.2969z"/>
  </symbol>
  <symbol id="k" overflow="visible">
   <path d="m9.2188-6.8906c-1.0234 0-1.793 0.17188-2.3125 0.51562-0.51172 0.34375-0.76562 0.85547-0.76562 1.5312 0 0.625 0.20703 1.1172 0.625 1.4688 0.41406 0.34375 0.98828 0.51562 1.7188 0.51562 0.92578 0 1.7031-0.32812 2.3281-0.98438 0.63281-0.66406 0.95312-1.4922 0.95312-2.4844v-0.5625zm7.4688-1.8438v8.7344h-4.9219v-2.2656c-0.65625 0.92969-1.3984 1.6055-2.2188 2.0312-0.82422 0.41406-1.8242 0.625-3 0.625-1.5859 0-2.8711-0.45703-3.8594-1.375-0.99219-0.92578-1.4844-2.1289-1.4844-3.6094 0-1.7891 0.61328-3.1016 1.8438-3.9375 1.2383-0.84375 3.1797-1.2656 5.8281-1.2656h2.8906v-0.39062c0-0.76953-0.30859-1.332-0.92188-1.6875-0.61719-0.36328-1.5703-0.54688-2.8594-0.54688-1.0547 0-2.0312 0.10547-2.9375 0.3125-0.89844 0.21094-1.7305 0.52344-2.5 0.9375v-3.7344c1.0391-0.25 2.0859-0.44141 3.1406-0.57812 1.0625-0.13281 2.125-0.20312 3.1875-0.20312 2.7578 0 4.75 0.54688 5.9688 1.6406 1.2266 1.0859 1.8438 2.8555 1.8438 5.3125z"/>
  </symbol>
  <symbol id="b" overflow="visible">
   <path d="m7.7031-19.656v4.3438h5.0469v3.5h-5.0469v6.5c0 0.71094 0.14062 1.1875 0.42188 1.4375s0.83594 0.375 1.6719 0.375h2.5156v3.5h-4.1875c-1.9375 0-3.3125-0.39844-4.125-1.2031-0.80469-0.8125-1.2031-2.1797-1.2031-4.1094v-6.5h-2.4219v-3.5h2.4219v-4.3438z"/>
  </symbol>
  <symbol id="e" overflow="visible">
   <path d="m12.766-13.078v-8.2031h4.9219v21.281h-4.9219v-2.2188c-0.66797 0.90625-1.4062 1.5703-2.2188 1.9844s-1.7578 0.625-2.8281 0.625c-1.8867 0-3.4336-0.75-4.6406-2.25-1.2109-1.5-1.8125-3.4258-1.8125-5.7812 0-2.3633 0.60156-4.2969 1.8125-5.7969 1.207-1.5 2.7539-2.25 4.6406-2.25 1.0625 0 2 0.21484 2.8125 0.64062 0.82031 0.42969 1.5664 1.0859 2.2344 1.9688zm-3.2188 9.9219c1.0391 0 1.8359-0.37891 2.3906-1.1406 0.55078-0.76953 0.82812-1.8828 0.82812-3.3438 0-1.457-0.27734-2.5664-0.82812-3.3281-0.55469-0.76953-1.3516-1.1562-2.3906-1.1562-1.043 0-1.8398 0.38672-2.3906 1.1562-0.55469 0.76172-0.82812 1.8711-0.82812 3.3281 0 1.4609 0.27344 2.5742 0.82812 3.3438 0.55078 0.76172 1.3477 1.1406 2.3906 1.1406z"/>
  </symbol>
  <symbol id="j" overflow="visible">
   <path d="m10.5-3.1562c1.0508 0 1.8516-0.37891 2.4062-1.1406 0.55078-0.76953 0.82812-1.8828 0.82812-3.3438 0-1.457-0.27734-2.5664-0.82812-3.3281-0.55469-0.76953-1.3555-1.1562-2.4062-1.1562-1.0547 0-1.8594 0.38672-2.4219 1.1562-0.55469 0.77344-0.82812 1.8828-0.82812 3.3281 0 1.4492 0.27344 2.5586 0.82812 3.3281 0.5625 0.77344 1.3672 1.1562 2.4219 1.1562zm-3.25-9.9219c0.67578-0.88281 1.4219-1.5391 2.2344-1.9688 0.82031-0.42578 1.7656-0.64062 2.8281-0.64062 1.8945 0 3.4453 0.75 4.6562 2.25 1.207 1.5 1.8125 3.4336 1.8125 5.7969 0 2.3555-0.60547 4.2812-1.8125 5.7812-1.2109 1.5-2.7617 2.25-4.6562 2.25-1.0625 0-2.0078-0.21094-2.8281-0.625-0.8125-0.42578-1.5586-1.0859-2.2344-1.9844v2.2188h-4.8906v-21.281h4.8906z"/>
  </symbol>
  <symbol id="i" overflow="visible">
   <path d="m0.34375-15.312h4.8906l4.125 10.391 3.5-10.391h4.8906l-6.4375 16.766c-0.64844 1.6953-1.4023 2.8828-2.2656 3.5625-0.86719 0.6875-2 1.0312-3.4062 1.0312h-2.8438v-3.2188h1.5312c0.83203 0 1.4375-0.13672 1.8125-0.40625 0.38281-0.26172 0.67969-0.73047 0.89062-1.4062l0.14062-0.42188z"/>
  </symbol>
  <symbol id="h" overflow="visible">
   <path d="m2.5781-20.406h14.203v3.9688h-8.9531v3.7969h8.4219v3.9844h-8.4219v4.6719h9.25v3.9844h-14.5z"/>
  </symbol>
  <symbol id="u" overflow="visible">
   <path d="m0.98438-15.312h4.7656l2.5625 10.547 2.5781-10.547h4.0938l2.5781 10.438 2.5781-10.438h4.75l-4.0312 15.312h-5.3438l-2.5781-10.531-2.5781 10.531h-5.3438z"/>
  </symbol>
  <symbol id="t" overflow="visible">
   <path d="m2.3594-15.312h4.8906v15.312h-4.8906zm0-5.9688h4.8906v4h-4.8906z"/>
  </symbol>
  <symbol id="g" overflow="visible">
   <path d="m17.75-9.3281v9.3281h-4.9219v-7.1406c0-1.3203-0.03125-2.2344-0.09375-2.7344s-0.16797-0.86719-0.3125-1.1094c-0.1875-0.3125-0.44922-0.55469-0.78125-0.73438-0.32422-0.17578-0.69531-0.26562-1.1094-0.26562-1.0234 0-1.8242 0.39844-2.4062 1.1875-0.58594 0.78125-0.875 1.8711-0.875 3.2656v7.5312h-4.8906v-15.312h4.8906v2.2344c0.73828-0.88281 1.5195-1.5391 2.3438-1.9688 0.83203-0.42578 1.75-0.64062 2.75-0.64062 1.7695 0 3.1133 0.54688 4.0312 1.6406 0.91406 1.0859 1.375 2.6562 1.375 4.7188z"/>
  </symbol>
  <symbol id="f" overflow="visible">
   <path d="m2.5781-20.406h8.7344c2.5938 0 4.582 0.57812 5.9688 1.7344 1.3945 1.1484 2.0938 2.7891 2.0938 4.9219 0 2.1367-0.69922 3.7812-2.0938 4.9375-1.3867 1.1562-3.375 1.7344-5.9688 1.7344h-3.4844v7.0781h-5.25zm5.25 3.8125v5.7031h2.9219c1.0195 0 1.8047-0.25 2.3594-0.75 0.5625-0.5 0.84375-1.2031 0.84375-2.1094 0-0.91406-0.28125-1.6172-0.84375-2.1094-0.55469-0.48828-1.3398-0.73438-2.3594-0.73438z"/>
  </symbol>
  <symbol id="s" overflow="visible">
   <path d="m2.5781-20.406h6.6875l4.6562 10.922 4.6719-10.922h6.6875v20.406h-4.9844v-14.938l-4.7031 11.016h-3.3281l-4.7031-11.016v14.938h-4.9844z"/>
  </symbol>
  <symbol id="r" overflow="visible">
   <path d="m12.422-21.281v3.2188h-2.7031c-0.6875 0-1.1719 0.125-1.4531 0.375-0.27344 0.25-0.40625 0.6875-0.40625 1.3125v1.0625h4.1875v3.5h-4.1875v11.812h-4.8906v-11.812h-2.4375v-3.5h2.4375v-1.0625c0-1.6641 0.46094-2.8984 1.3906-3.7031 0.92578-0.80078 2.3672-1.2031 4.3281-1.2031z"/>
  </symbol>
  <symbol id="d" overflow="visible">
   <path d="m9.6406-12.188c-1.0859 0-1.9141 0.39062-2.4844 1.1719-0.57422 0.78125-0.85938 1.9062-0.85938 3.375s0.28516 2.5938 0.85938 3.375c0.57031 0.77344 1.3984 1.1562 2.4844 1.1562 1.0625 0 1.875-0.38281 2.4375-1.1562 0.57031-0.78125 0.85938-1.9062 0.85938-3.375s-0.28906-2.5938-0.85938-3.375c-0.5625-0.78125-1.375-1.1719-2.4375-1.1719zm0-3.5c2.6328 0 4.6914 0.71484 6.1719 2.1406 1.4766 1.418 2.2188 3.3867 2.2188 5.9062 0 2.5117-0.74219 4.4805-2.2188 5.9062-1.4805 1.418-3.5391 2.125-6.1719 2.125-2.6484 0-4.7148-0.70703-6.2031-2.125-1.4922-1.4258-2.2344-3.3945-2.2344-5.9062 0-2.5195 0.74219-4.4883 2.2344-5.9062 1.4883-1.4258 3.5547-2.1406 6.2031-2.1406z"/>
  </symbol>
  <symbol id="q" overflow="visible">
   <path d="m16.547-12.766c0.61328-0.94531 1.3477-1.6719 2.2031-2.1719 0.85156-0.5 1.7891-0.75 2.8125-0.75 1.7578 0 3.0977 0.54688 4.0156 1.6406 0.92578 1.0859 1.3906 2.6562 1.3906 4.7188v9.3281h-4.9219v-7.9844-0.35938c0.007813-0.13281 0.015625-0.32031 0.015625-0.5625 0-1.082-0.16406-1.8633-0.48438-2.3438-0.3125-0.48828-0.82422-0.73438-1.5312-0.73438-0.92969 0-1.6484 0.38672-2.1562 1.1562-0.51172 0.76172-0.77344 1.8672-0.78125 3.3125v7.5156h-4.9219v-7.9844c0-1.6953-0.14844-2.7852-0.4375-3.2656-0.29297-0.48828-0.8125-0.73438-1.5625-0.73438-0.9375 0-1.6641 0.38672-2.1719 1.1562-0.51172 0.76172-0.76562 1.8594-0.76562 3.2969v7.5312h-4.9219v-15.312h4.9219v2.2344c0.60156-0.86328 1.2891-1.5156 2.0625-1.9531 0.78125-0.4375 1.6406-0.65625 2.5781-0.65625 1.0625 0 2 0.25781 2.8125 0.76562 0.8125 0.51172 1.4258 1.2305 1.8438 2.1562z"/>
  </symbol>
  <symbol id="p" overflow="visible">
   <path d="m17.75-9.3281v9.3281h-4.9219v-7.1094c0-1.3438-0.03125-2.2656-0.09375-2.7656s-0.16797-0.86719-0.3125-1.1094c-0.1875-0.3125-0.44922-0.55469-0.78125-0.73438-0.32422-0.17578-0.69531-0.26562-1.1094-0.26562-1.0234 0-1.8242 0.39844-2.4062 1.1875-0.58594 0.78125-0.875 1.8711-0.875 3.2656v7.5312h-4.8906v-21.281h4.8906v8.2031c0.73828-0.88281 1.5195-1.5391 2.3438-1.9688 0.83203-0.42578 1.75-0.64062 2.75-0.64062 1.7695 0 3.1133 0.54688 4.0312 1.6406 0.91406 1.0859 1.375 2.6562 1.375 4.7188z"/>
  </symbol>
  <symbol id="o" overflow="visible">
   <path d="m2.5781-20.406h5.875l7.4219 14v-14h4.9844v20.406h-5.875l-7.4219-14v14h-4.9844z"/>
  </symbol>
  <symbol id="n" overflow="visible">
   <path d="m2.1875-5.9688v-9.3438h4.9219v1.5312c0 0.83594-0.007813 1.875-0.015625 3.125-0.011719 1.25-0.015625 2.0859-0.015625 2.5 0 1.2422 0.03125 2.1328 0.09375 2.6719 0.070313 0.54297 0.17969 0.93359 0.32812 1.1719 0.20703 0.32422 0.47266 0.57422 0.79688 0.75 0.32031 0.16797 0.69141 0.25 1.1094 0.25 1.0195 0 1.8203-0.39062 2.4062-1.1719 0.58203-0.78125 0.875-1.8672 0.875-3.2656v-7.5625h4.8906v15.312h-4.8906v-2.2188c-0.74219 0.89844-1.5234 1.5586-2.3438 1.9844-0.82422 0.41406-1.7344 0.625-2.7344 0.625-1.7617 0-3.1055-0.53906-4.0312-1.625-0.92969-1.082-1.3906-2.6602-1.3906-4.7344z"/>
  </symbol>
  <symbol id="m" overflow="visible">
   <path d="m2.3594-15.312h4.8906v15.031c0 2.0508-0.49609 3.6172-1.4844 4.7031-0.98047 1.082-2.4062 1.625-4.2812 1.625h-2.4219v-3.2188h0.85938c0.92578 0 1.5625-0.21094 1.9062-0.625 0.35156-0.41797 0.53125-1.2461 0.53125-2.4844zm0-5.9688h4.8906v4h-4.8906z"/>
  </symbol>
  <symbol id="l" overflow="visible">
   <path d="m14.719-14.828v3.9844c-0.65625-0.45703-1.3242-0.79688-2-1.0156-0.66797-0.21875-1.3594-0.32812-2.0781-0.32812-1.3672 0-2.4336 0.40234-3.2031 1.2031-0.76172 0.79297-1.1406 1.9062-1.1406 3.3438 0 1.4297 0.37891 2.543 1.1406 3.3438 0.76953 0.79297 1.8359 1.1875 3.2031 1.1875 0.75781 0 1.4844-0.10938 2.1719-0.32812 0.6875-0.22656 1.3203-0.56641 1.9062-1.0156v4c-0.76172 0.28125-1.5391 0.48828-2.3281 0.625-0.78125 0.14453-1.5742 0.21875-2.375 0.21875-2.7617 0-4.9219-0.70703-6.4844-2.125-1.5547-1.4141-2.3281-3.3828-2.3281-5.9062 0-2.5312 0.77344-4.5039 2.3281-5.9219 1.5625-1.4141 3.7227-2.125 6.4844-2.125 0.80078 0 1.5938 0.074219 2.375 0.21875 0.78125 0.13672 1.5547 0.35156 2.3281 0.64062z"/>
  </symbol>
 </defs>
 <g>
  <path d="m389.91 418.43c0.42578 5 1.8164 10.891 3.7305 15.75 2.0508 5.2109 4.5 8.7617 7.4883 10.859 2.0234 1.418 4.2656 2.1367 6.5586 2.1367 1.4336 0 2.8867-0.28125 4.3203-0.84375 3.5391-1.3945 11.117-6.2656 5.1562-21.41-0.097656-0.25781-10.336-25.316-21.781-20.828h-0.003906c-4.2891 1.6914-6.1328 6.5156-5.4688 14.336zm16.836 10.59c2.0625 5.2383 1.3281 6.832 1.0195 6.9609-0.011719-0.003907-1.6367-0.66797-3.6953-5.9062-1.5273-3.8711-2.4141-7.8945-2.8203-11.098 1.8789 2.625 3.9727 6.1797 5.4961 10.043z"/>
  <path d="m513.75 252.34c-0.11719-2.2812-0.29297-4.5625-0.44922-6.4141 0-0.41797-0.03125-0.89844-0.078125-1.3555 0-0.007812 0.003906-0.011718 0.003906-0.019531-0.003906-0.03125-0.007812-0.058594-0.007812-0.089844-0.003906-0.03125 0-0.058593-0.003906-0.089843-0.28516-3.4766-0.62891-6.957-0.97266-10.457 0-0.011718-0.003906-0.023437-0.003906-0.035156 0-0.015625-0.003906-0.027344-0.003906-0.042969 0-0.003906 0-0.003906-0.003907-0.007812-0.35156-3.4258-0.8125-6.8516-1.2695-10.152-0.35547-2.8398-0.82422-5.625-1.2734-8.2305-0.24609-1.7891-0.55859-3.6406-0.89844-5.2617-0.41797-2.3945-0.89844-4.7344-1.4102-6.9609-0.52734-2.5273-1.0586-4.9922-1.5977-7.2422l-0.19922-0.98828c-0.48438-2.1758-1.0273-4.2969-1.5938-6.2773-0.47656-1.8555-0.95703-3.5938-1.4688-5.2852-0.50391-1.793-1.0039-3.457-1.4727-4.8828-0.070313-0.22266-0.12891-0.44531-0.19922-0.66797-0.003906-0.007812-0.007812-0.011719-0.011719-0.019531-0.1875-0.6875-0.39844-1.3828-0.58203-1.9297-0.49609-1.6641-1.0547-3.332-1.6211-4.8633-0.76953-2.2461-1.5352-4.3711-2.3281-6.4688-0.003906-0.015625-0.011719-0.027344-0.015625-0.042969s-0.011718-0.03125-0.015625-0.046875c0-0.003906-0.003906-0.003906-0.003906-0.007812-0.77344-2.1406-1.6055-4.2812-2.4609-6.2734-2.043-4.9961-3.75-8.793-5.5195-12.281-1.7656-3.5312-3.8828-7.6797-6.1836-11.652l-1.4062-2.5742c-0.38672-0.66406-0.77734-1.3242-1.2031-1.9922-0.375-0.76172-0.79297-1.4453-1.1523-1.9492 0-0.003907 0-0.003907-0.003906-0.007813-0.15625-0.25391-0.3125-0.50391-0.47266-0.76172-0.10156-0.16016-0.20703-0.31641-0.30859-0.48047-0.003907-0.007813-0.011719-0.015626-0.015626-0.027344-0.43359-0.67969-0.87109-1.3633-1.3125-2.0273-0.14844-0.26172-0.36328-0.51172-0.52734-0.77344-0.38281-0.58203-0.76562-1.168-1.1445-1.7148-0.37891-0.65234-0.81641-1.2969-1.2539-1.8672-0.10938-0.16797-0.28125-0.42578-0.52344-0.72656-0.089844-0.15234-0.18359-0.28906-0.27734-0.41406-0.37109-0.53125-0.74219-1.043-1.1602-1.5391-1.0703-1.5586-2.2383-3.0664-3.4102-4.5234-0.24219-0.35156-0.50391-0.69922-0.75781-1.0156-1.0898-1.3945-2.1836-2.7266-3.0938-3.7656-0.62109-0.83203-1.3086-1.5977-1.9688-2.3242l-1.4414-1.6172c-0.63672-0.6875-1.2734-1.3789-1.8594-2.0664-0.16797-0.19922-0.35156-0.38672-0.54297-0.55859-0.10547-0.10938-0.21094-0.22266-0.24219-0.25391-1.0859-1.1406-2.1211-2.1836-3.1445-3.1719-0.058594-0.070313-0.15625-0.15234-0.21875-0.22266-0.21094-0.24609-0.42578-0.50781-0.64062-0.72656-0.09375-0.09375-0.26172-0.22266-0.39453-0.33594l-0.007812-0.007812c-0.089844-0.089844-0.17969-0.17969-0.26953-0.26953-1.0312-1.0273-2.0195-2.0117-3.0547-2.9961-0.070313-0.066406-0.44922-0.38281-0.52344-0.44141-0.050781-0.042969-0.19141-0.16016-0.33203-0.26953-1.0898-1.0195-2.2266-1.9805-3.1953-2.7383-0.03125-0.027344-0.050782-0.039062-0.078126-0.066406-0.37109-0.35156-0.73047-0.6875-1.1953-1.0859-0.375-0.31641-0.81641-0.63281-1.2578-0.95312-0.47656-0.40625-0.96484-0.79297-1.2031-0.95703-0.53125-0.48438-1.0625-0.90625-1.5898-1.3242l-0.48828-0.38672c-0.29688-0.25-0.61719-0.48047-1.2617-0.94141l-2.6094-1.9453c-0.066406-0.046875-0.13672-0.089844-0.20703-0.13672-0.078124-0.058593-0.16016-0.12109-0.24219-0.17969v-0.003906c-1.0391-0.73438-2.082-1.4688-3.1562-2.1641l-1.3438-0.85547c-1.293-0.82812-2.5742-1.6445-3.4414-2.1367-0.23828-0.17969-0.47656-0.33203-0.66406-0.44141-0.19922-0.15234-0.42578-0.29297-0.64844-0.41797-0.22656-0.15234-0.44922-0.28906-0.63281-0.39062-1.9883-1.1055-3.9766-2.2109-6.0195-3.3125l-0.003906 0.003906c-0.09375-0.050782-0.19141-0.10547-0.28516-0.15234-0.69141-0.375-1.4375-0.74609-2.1914-1.0703-0.70312-0.375-1.3711-0.69531-2.0742-0.96875-0.10938-0.050782-0.22266-0.097657-0.33203-0.15234-0.87109-0.45312-1.7656-0.91406-2.5352-1.2266-0.55078-0.25-1.1289-0.47266-1.707-0.69531-0.070313-0.03125-0.14062-0.066407-0.21484-0.097657-0.078125-0.039062-0.16016-0.074218-0.23828-0.10937l0.003906-0.003907c-1.4961-0.69141-3.0469-1.332-4.5977-1.918-0.46875-0.23437-0.82812-0.35156-0.94922-0.39062l-0.96875-0.35156c-1.6172-0.59375-3.2227-1.1758-4.8984-1.7227-0.14063-0.046875-0.28906-0.085938-0.4375-0.12109-2.3359-0.73828-4.6719-1.4688-7.0117-2.082-2.1836-0.58984-4.4258-1.125-6.6992-1.6641-0.89062-0.20312-1.8438-0.40234-2.5586-0.5-0.33594-0.085937-0.66797-0.17578-1.0156-0.24609-2.2578-0.87109-5.6016-1.1992-10.223-1.6289-0.16797-0.015625-0.33203-0.03125-0.50391-0.046875h-0.011719c-0.023438-0.003906-0.042969-0.007812-0.066406-0.007812-0.35547-0.035156-0.79688-0.082032-1.4961-0.17969-0.015625-0.003906-0.023438-0.011718-0.039062-0.011718-0.058594-0.007813-0.125-0.007813-0.18359-0.015626-0.050782-0.007812-0.070313-0.007812-0.125-0.015624-0.10938-0.007813-0.21484-0.015626-0.32031-0.023438-1.9727-0.24609-3.9805-0.41797-6.043-0.53125-0.003906 0-0.003906-0.003906-0.007812-0.003906-0.71484-0.082032-1.4531-0.16797-1.8438-0.13672-7.707-0.53125-15.988-0.44531-22.922 0.058594-0.023437 0-0.046875 0.015625-0.070313 0.019531-5.3242 0.37109-10.199 0.91406-14.879 1.6562-0.11328 0.011719-0.22266 0.027344-0.33594 0.042969-85.637 13.824-136.75 94.367-136.75 215.45 0 12.301 0.4375 24.176 1.3047 35.613 8.3789 110.57 56.75 180.08 135.57 192.66 0.011719 0.003906 0.023437 0.003906 0.035156 0.003906h0.003906 0.003907c4.7578 0.79297 9.6953 1.3477 14.684 1.6523 0.054688 0.003906 0.21875 0.007813 0.38672 0.007813 0.003906 0 0.007812 0.003906 0.015625 0.003906 0.003906 0 0.007813-0.003906 0.015625-0.003906h0.058594c3.6797 0.32031 7.5742 0.47266 12.246 0.47266 3.8008 0 7.4258-0.11719 10.746-0.34375 0.39844 0 0.83203-0.070313 1.2617-0.12109 0.039062 0 0.074219 0 0.11328-0.003906 2.4453-0.12109 4.8281-0.36328 7.2148-0.66797 0.14453-0.019531 0.25391-0.10156 0.39453-0.13281l5.5-0.67578c0.050782-0.007812 0.097656-0.011719 0.14844-0.023437l0.03125-0.003906c0.23047-0.039063 0.45312-0.089844 0.67188-0.16016 85.301-14.059 138.26-101.46 138.26-228.3-0.007813-7.4961-0.20703-14.637-0.58984-21.223zm-316.88 21.246c0-10.781 0.41797-21.219 1.2383-31.301 6.4414-78.973 37.742-135.82 87.742-160.82 1.9883-0.99609 4.0078-1.9375 6.0586-2.832-43.328 38.691-67.641 107.31-67.641 194.6 0 96.414 24.266 168.84 68.891 208.72-86.164-36.402-96.289-155.03-96.289-208.37zm128.4 217.35c-78.09-41.109-89.797-153.95-89.797-217.7 0-98.863 31.758-172.41 87.195-202.78-35.305 48.84-48.18 134.85-48.18 202.42 0 94.691 20.629 175.79 55.289 218.67-1.5117-0.18359-3.0234-0.37109-4.5078-0.60938zm6.0195-408.55c-0.12109 2.1484-0.25 4.5898-0.38672 7.1602-2.7422 48.52-8.1445 149.31-8.1445 190.41 0 3.7773 0.058594 8.1758 0.14063 12.875-0.003907 0.23438-0.007813 0.46094-0.007813 0.51953 0.14062 13.105 0.91406 34.117 1.957 57.762 1.6719 38.938 4.082 84.359 6.2812 123.32-33.23-49.992-45.441-134.77-45.441-201.54 0-65.77 12.262-149.2 45.91-195.71zm18.809 410.41c-0.24219 0-0.48047 0.003906-0.72266 0.003906-1.75-0.003906-3.3867-0.035156-4.9258-0.089843-0.21484-0.007813-0.45312-0.007813-0.66406-0.015625-0.13281-0.003906-0.24609-0.019532-0.37891-0.023438-0.98047-17.117-4.4336-78.137-6.8555-130.57-1.1836-26.262-2.1172-50.898-2.457-69.09 0.12891-7.0234 5.2148-149.32 7.9961-202.96 0.14062-2.4727 0.27344-4.8477 0.39844-7.0312v-0.027344c0.089844-1.707 0.17578-3.2461 0.26562-4.8125l0.28516-4.8398c0.13281-2.1914 0.25-4.1992 0.35938-6.0039 2.1133-0.082031 4.3867-0.10938 6.6992-0.10156-0.16797 47.035-0.16406 380.06 0 425.57zm23.543-1.8672c-0.22656 0.035156-0.44531 0.085937-0.66016 0.14844l-6.5938 0.80469c-1.6172 0.12891-3.2227 0.26172-4.9062 0.3125-0.058594 0.003906-0.125 0.007812-0.19531 0.011718-0.21875-45.969-0.21875-377.16 0-424.44 0.066406 0.003907 0.125 0.007813 0.19531 0.011719 0.011719 0 0.019531-0.003906 0.03125-0.003906 0.039062 0.003906 0.078125 0.003906 0.11719 0.007813 1.9727 0.11328 4.1719 0.28125 6.3164 0.44922h0.015626c0.57031 0.082032 1.1211 0.15234 1.8008 0.21875h0.003906c0.011719 0 0.019531 0 0.03125 0.003906 0.007813 0 0.011719 0.003907 0.019531 0.003907 0.46484 0.039062 0.93359 0.10156 1.4141 0.17188 0.15625 0.023437 0.30469 0.039062 0.46875 0.0625 0.56641 0.085937 1.1602 0.1875 1.8516 0.30078 2.2578 0.33203 4.5156 0.77344 6.7734 1.2148l0.03125 0.003906c0.023437 0.003906 0.046875 0.003906 0.066406 0.007813 0.074219 0.015624 0.13672 0.027343 0.21094 0.039062 0.64453 0.09375 1.293 0.23438 1.8633 0.36719 2.125 0.50391 4.2461 1.0039 6.3672 1.5781 2.3203 0.60547 4.5898 1.3281 6.8555 2.0469 0.11328 0.039062 0.23438 0.070312 0.35938 0.10156 1.4258 0.46875 2.793 0.96875 4.1758 1.4766l0.87891 0.31641c0.19531 0.097656 0.39063 0.1875 0.59766 0.26172 1.4023 0.51562 2.8047 1.0898 4.1602 1.7109 0.13281 0.070313 0.26953 0.13672 0.40625 0.19531 1.5586 0.66797 3.1133 1.3906 4.6719 2.1133 0.003906 0 0.007812 0 0.007812 0.003906 0.17578 0.085937 0.35156 0.16016 0.53516 0.22656v0.003906c0.375 0.14062 0.71484 0.32031 1.0898 0.52344 0.17578 0.09375 0.35156 0.17969 0.53516 0.25781 0.50781 0.21094 1.0156 0.46484 1.4766 0.71875l0.003907-0.003906c0.10156 0.054687 0.20703 0.10937 0.30469 0.16016 1.9297 1.043 3.8086 2.0859 5.9531 3.2773 0.023438 0.011718 0.042969 0.027343 0.066406 0.042968 0.21094 0.14844 0.47656 0.32031 1 0.65625 1.2227 0.73438 2.418 1.5 3.625 2.2734l1.3398 0.85547c0.78125 0.50391 1.5625 1.0508 2.3438 1.5977 0.24219 0.24219 0.35156 0.32812 0.78125 0.54297l2.1328 1.5898c0.29688 0.25 0.61719 0.48047 1.1367 0.84375l0.67969 0.53906c0.33203 0.25781 0.66016 0.51562 1.3203 1.0938 0.43359 0.33594 0.87109 0.67188 1.4727 1.1875 0.73828 0.58203 1.4219 1.1602 2.1602 1.7969 0.003906 0.003906 0.011718 0.003906 0.015625 0.007812 0.0625 0.054688 0.10938 0.09375 0.17188 0.14844 0.96094 0.75781 1.9219 1.5625 2.9102 2.5 1.2578 1.1445 2.457 2.293 3.6641 3.4961l0.003907 0.003907c0.046875 0.050781 0.52734 0.50781 0.61328 0.58594 0.003906 0.003906 0.011719 0.007813 0.015625 0.011719 0.14062 0.16016 0.45703 0.48438 0.5625 0.59375 1.0156 1.0156 1.9961 2 3.1172 3.1602 0.11328 0.13281 0.27344 0.29688 0.44922 0.46875 0.62891 0.73047 1.3008 1.457 1.9102 2.1211l1.4258 1.5977c0.45312 0.5 0.91406 1 1.5664 1.8398 1.0312 1.1992 2.0078 2.3945 3.2305 3.9414 0.13281 0.22266 0.28125 0.43359 0.44531 0.63672 1.1094 1.375 2.2227 2.7969 3.2227 4.2812 0.14844 0.21484 0.30859 0.42188 0.48438 0.61719 0.22656 0.25 0.40234 0.52344 0.59375 0.79687l0.17969 0.25c0.14453 0.24609 0.30859 0.48047 0.49219 0.70703 0.11328 0.16016 0.28516 0.41016 0.35547 0.5 0.21875 0.28516 0.41016 0.5625 0.57031 0.84766 0.082031 0.14844 0.17969 0.29297 0.27344 0.43359 0.003907 0.007812 0.003907 0.015625 0.011719 0.023437 0.046875 0.066407 0.09375 0.13672 0.14062 0.20312 0.32422 0.45703 0.64062 0.94141 0.96484 1.4375l0.83203 1.2773c0.019531 0.027344 0.29688 0.45703 0.3125 0.48438 0.39062 0.56641 0.81641 1.2305 1.2852 1.9727 0.019532 0.027344 0.035156 0.054688 0.054688 0.085938 0.003906 0.003906 0.007812 0.007812 0.011718 0.011719 0.0625 0.097656 0.10156 0.15234 0.16406 0.25 0.20312 0.28516 0.37891 0.57031 0.52344 0.88672 0.125 0.27344 0.26953 0.53125 0.43359 0.78125 0.39844 0.59766 0.74219 1.1992 1.3203 2.2188l1.1406 2.0859c2.1641 3.7422 4.1836 7.7031 5.8906 11.113 1.6445 3.2383 3.2305 6.7773 5.1914 11.57 0.81641 1.9102 1.582 3.875 2.3203 5.9297 0.73828 1.9453 1.4688 3.8945 2.1094 5.8398 0.058594 0.16797 0.11328 0.32031 0.17188 0.49219 0.53125 1.4375 1.0117 2.875 1.4922 4.4805 0.18359 0.55078 0.375 1.1055 0.61719 2.0195 0.55078 1.7109 1.0508 3.3711 1.5742 5.2422 0.49609 1.6523 0.9375 3.25 1.418 5.0898 0.54297 1.9062 1.0352 3.8125 1.4453 5.6562l0.21484 1.0664c0.56641 2.3633 1.0703 4.7266 1.5977 7.2539 0.49609 2.1484 0.93359 4.2891 1.3516 6.6562 0.32031 1.5469 0.58984 3.1445 0.82812 4.8633 0.44531 2.6211 0.89453 5.2422 1.2344 7.9883 0.44922 3.2695 0.90234 6.5938 1.2422 9.8945 0.011719 0.11328 0.023438 0.23047 0.035157 0.34766 0.37891 3.3047 0.66016 6.6602 0.93359 10.074 0 0.023437 0.015626 0.039062 0.015626 0.0625 0.003906 0.066406 0.011718 0.13281 0.019531 0.19922 0.003906 0.066406 0.011719 0.57031 0.019531 0.63672 0.16797 2.1914 0.33984 4.3867 0.44922 6.582 0 0.011718 0 0.027343 0.003906 0.039062 0.375 6.375 0.5625 13.305 0.5625 20.594-0.011719 95.055-34.027 202.07-129.5 217.36z"/>
  <path d="m378.72 153.41c3.0938 0 5.6016-2.5078 5.6016-5.6016l0.003907-4.2578v-0.16016-0.90625h-0.003907c0.003907-0.14062 0.003907-0.27734 0.003907-0.42188 0-3.0938-2.5078-5.6016-5.6016-5.6016s-5.6016 2.5078-5.6016 5.6016v1.4922 0.023437l0.003906 0.19531c0.003906 0.15234 0.015625 0.30078 0.03125 0.44922-0.039062 1.0977-0.039062 2.3008-0.039062 3.5859 0.003906 3.0938 2.5078 5.6016 5.6016 5.6016z"/>
  <path d="m431.81 108.11c-15.055-12.973-32.316-21.66-51.152-25.789l-0.62891-0.16016c-1.668-0.44141-3.4609-0.074218-4.8359 0.98047-1.375 1.0586-2.1797 2.6914-2.1836 4.4258l-0.039062 37.246c-0.003906 3.0938 2.5 5.6016 5.5938 5.6055h0.003906c3.0898 0 5.5977-2.5039 5.6016-5.5938l0.03125-30.074c14.77 4.1758 28.305 11.508 40.301 21.844 36.141 31.098 56.043 86.844 56.043 156.97 0 73.68-21.207 136.88-56.723 169.07-11.59 10.469-24.789 17.961-39.621 22.418-0.050781-45.215 0.011719-130.97 0.066406-212.01l0.054687-87.988c0-3.0938-2.5078-5.6016-5.6016-5.6016s-5.6016 2.5078-5.6016 5.6016l-0.054688 87.98c-0.058594 85.656-0.125 176.57-0.058594 219.34 0.003906 1.7031 0.78125 3.3125 2.1172 4.375 1 0.79688 2.2305 1.2188 3.4844 1.2188 0.41797 0 0.83984-0.046875 1.2539-0.14062 0.93359-0.21484 1.7852-0.43359 2.207-0.59375 18.363-4.5039 34.934-13.348 49.266-26.289 54.52-49.414 60.406-140.5 60.406-177.38 0.003907-73.441-21.285-132.2-59.93-165.46z"/>
  <path d="m420.8 263.44c-0.97656-2.5586-4.3359-6.2383-10.797-3.793-1.6172 0.61328-3.3125 1.5508-4.6445 2.5703-4.3711 3.3398-3.6523 6.8789-3.1289 8.2617 0 0.007812 0.003907 0.015625 0.003907 0.011719 0.53125 1.3906 1.957 2.8555 3.3086 3.4688 1.1172 0.50391 2.3672 0.6875 3.5938 0.6875 2.7734 0 5.4219-0.93359 6.1016-1.1875 6.4492-2.4492 6.5352-7.4375 5.5625-10.02zm-8.0039 6.3867c-0.94141-0.34766-1.9766-1.1172-2.4727-2.418-0.5-1.3203-0.21094-2.6055 0.21094-3.457 0.80078 0.46484 1.6719 1.2773 2.1641 2.5664 0.48438 1.2656 0.38281 2.4336 0.097657 3.3086z"/>
  <path d="m414.54 301.78c1.7695-0.62109 3.1992-1.9102 4.0195-3.625 1.0547-2.1875 0.94531-4.6406-0.30078-6.7305-0.90625-1.5195-2.3398-2.7383-4.375-3.7148-4.6172-2.2266-10.848-3.0742-13.219 1.8242 0 0.003906-0.003906 0.003906-0.003906 0.007813-2.3633 4.9023 2.1914 9.2461 6.8047 11.469 1.625 0.78125 3.168 1.1758 4.6172 1.1758 0.85547 0.003906 1.6719-0.13281 2.457-0.40625zm-6.1172-5.0273c-0.39844-0.92188-0.55859-2.1992 0.042969-3.4453v-0.003906l2.2812 1.1055c-0.58594 1.2109-1.5 1.9414-2.3242 2.3438zm2.3281-2.3516-2.2852-1.0977c0.61719-1.2773 1.75-1.957 2.6602-2.2383 0.21484 0.89844 0.22266 2.0938-0.375 3.3359z"/>
  <path d="m404.37 230.5c-2.6094-0.87109-7.582-0.58984-9.7734 5.9648-1.6172 4.8555-1.6836 11.145 3.4727 12.875 0.003907 0.003906 0.011719 0.003906 0.011719 0.003906 0.70703 0.23438 1.3828 0.34375 2.0352 0.34375 4.1094 0 7.0859-4.3516 8.4883-8.5508 0.71484-2.1484 0.84375-4.0234 0.38672-5.7305-0.62891-2.3477-2.3125-4.1367-4.6211-4.9062zm-6.0977 8.2734c0.85937-0.33203 2.043-0.48828 3.3555-0.050782l-0.80469 2.4062c-1.3438-0.45312-2.1562-1.4883-2.5508-2.3555zm2.5586 2.3555 0.80859-2.4023c1.2773 0.42969 2.1133 1.2422 2.6133 2.0078-0.86719 0.51562-2.1094 0.82031-3.4219 0.39453z"/>
  <path d="m401.94 309.96c-1.4023-0.46094-3.4609-0.35938-4.793 0.30469-4.8711 2.4375-3.9297 8.6562-1.6367 13.246 1.0117 2.0234 2.25 3.4375 3.7852 4.3242 1.1172 0.64453 2.3281 0.96875 3.5469 0.96875 1.082 0 2.1641-0.25391 3.1875-0.76562 2.1758-1.0898 3.5859-3.0938 3.8789-5.5078 0.21094-1.7578-0.17969-3.5938-1.1875-5.6094-0.46484-0.94531-2.9883-5.6953-6.7812-6.9609zm0.21875 10.32c-1.2188 0.60547-2.3945 0.61719-3.2852 0.43359 0.25-0.97266 0.90625-2.0781 2.1484-2.6992 1.2695-0.63672 2.5781-0.47266 3.4727-0.14062-0.38281 0.83984-1.1055 1.793-2.3359 2.4062z"/>
  <path d="m476.28 284.03c0-3.8008-1.7578-12.641-18.031-12.641-0.27344 0-27.355 0.34375-27.355 12.641 0 12.293 27.086 12.637 27.355 12.637 16.273 0.003907 18.031-8.8359 18.031-12.637zm-18.031 1.4414c-4.1758 0-8.2617-0.65234-11.398-1.4492 3.1055-0.78906 7.168-1.4297 11.398-1.4297 5.6289 0 6.8398 1.2656 6.8516 1.5977-0.011718 0.015625-1.2227 1.2812-6.8516 1.2812z"/>
  <path d="m462.76 211.7c-3.6055-0.58984-7.8359 0.25781-12.934 2.5625-0.25 0.11328-24.789 11.57-19.73 22.781 0.003906 0 0.003906 0 0.003906 0.003907 1.7227 3.8086 5.7266 5.0703 10.281 5.0703 8.8242 0 19.688-4.7422 19.852-4.8164 14.832-6.6992 12.793-15.48 11.23-18.945-1.6523-3.6562-4.7422-6.0195-8.7031-6.6562zm-7.1406 15.395c-3.8516 1.7383-7.8164 2.832-10.973 3.3867 2.5273-2.0156 5.9844-4.293 9.793-6.0117 2.9492-1.332 4.7383-1.6836 5.7539-1.6836 0.75 0 1.082 0.19141 1.1445 0.32031-0.003907 0.015626-0.58594 1.668-5.7188 3.9883z"/>
  <path d="m432.07 162.41c-3.5547 0.82031-7.1602 3.1875-11.02 7.2422-3.6016 3.7852-7.1094 8.7188-9.3828 13.191-3.5547 7-3.6602 12.164-0.32031 15.344 1.5 1.4258 3.3672 2.1406 5.582 2.1406 2.7188 0 5.9688-1.0742 9.7227-3.2227 4.3555-2.4922 9.1094-6.2383 12.711-10.023 3.8594-4.0547 6.0469-7.7734 6.6875-11.363 0.70703-3.9492-0.50391-7.6445-3.4141-10.41-2.9023-2.7695-6.6523-3.8008-10.566-2.8984zm-0.82031 16.949c-2.8672 3.0117-6.1367 5.5195-8.8711 7.2383 1.582-2.8125 3.9219-6.2109 6.7852-9.2188 3.1445-3.3047 4.8906-3.9375 5.5742-3.9375 0.16016 0 0.25781 0.035156 0.30859 0.078125 0 0.011719 0.082031 1.7617-3.7969 5.8398z"/>
  <path d="m469.33 339.78c1.4336-3.5195 3.1367-12.367-11.938-18.508-4.8398-1.9688-10.711-3.4336-15.707-3.9141-7.8047-0.74609-12.656 1.0352-14.398 5.3086-1.7383 4.2695 0.48047 8.9336 6.5977 13.848 3.9102 3.1445 9.1367 6.1992 13.977 8.1719 4.1094 1.6719 7.4688 2.332 10.211 2.3281 7.3086 0.003906 10.219-4.6719 11.258-7.2344zm-27.289-11.109c3.1797 0.4375 7.1992 1.3789 11.133 2.9805 5.2148 2.1211 5.8594 3.75 5.7461 4.0625-0.023437 0-1.6055 0.73047-6.832-1.3984-3.9297-1.6016-7.4648-3.7383-10.047-5.6445z"/>
  <path d="m438.96 405.47c0.82031 0.16797 1.6328 0.25 2.4297 0.25 3.0195 0 5.8203-1.1758 8.0586-3.4258 2.832-2.8477 3.9414-6.5742 3.1289-10.504-0.73828-3.5742-3.0273-7.2305-6.9961-11.176-3.7031-3.6875-8.5547-7.3047-12.977-9.6758-6.9219-3.7148-12.074-3.9336-15.332-0.66406-8.6719 8.7188 10.281 28.062 10.477 28.258 3.9688 3.9453 7.6328 6.2148 11.211 6.9375zm-1.2812-16.918c3.9883 3.9688 3.957 5.7188 3.7266 5.9648-0.003906 0.03125-1.7227 0.085938-5.7578-3.9297-2.9961-2.9805-5.4297-6.3008-7.0703-9.0508 2.7852 1.6484 6.1406 4.0703 9.1016 7.0156z"/>
  <path d="m408.2 120.48c-3.6758-0.98828-12.664-1.5547-16.848 14.176-0.070312 0.26562-6.7031 26.527 5.1797 29.691h0.003906c0.67969 0.17969 1.3398 0.26562 1.9883 0.26562 10.703 0 17.195-23.203 17.258-23.457 4.1797-15.727-3.9062-19.695-7.582-20.676zm-3.2422 17.797c-1.0938 4.1055-2.7656 7.8828-4.3359 10.688 0.03125-3.2148 0.46094-7.3203 1.5508-11.426 1.3945-5.2383 2.8672-6.2148 3.2695-6.2148 0.011719 0 0.027344 0.003907 0.039062 0.003907 0.011719 0.015625 0.92188 1.5117-0.52344 6.9492z"/>
  <use x="70" y="644" xlink:href="#v"/>
  <use x="90.550781" y="644" xlink:href="#c"/>
  <use x="104.359375" y="644" xlink:href="#a"/>
  <use x="123.347656" y="644" xlink:href="#k"/>
  <use x="142.242188" y="644" xlink:href="#b"/>
  <use x="155.628906" y="644" xlink:href="#a"/>
  <use x="174.617188" y="644" xlink:href="#e"/>
  <use x="204.410156" y="644" xlink:href="#j"/>
  <use x="224.453125" y="644" xlink:href="#i"/>
  <use x="252.453125" y="644" xlink:href="#h"/>
  <use x="271.578125" y="644" xlink:href="#e"/>
  <use x="291.621094" y="644" xlink:href="#u"/>
  <use x="317.488281" y="644" xlink:href="#t"/>
  <use x="327.085938" y="644" xlink:href="#g"/>
  <use x="356.765625" y="644" xlink:href="#f"/>
  <use x="377.289062" y="644" xlink:href="#s"/>
  <use x="70" y="672" xlink:href="#r"/>
  <use x="82.183594" y="672" xlink:href="#c"/>
  <use x="95.992188" y="672" xlink:href="#d"/>
  <use x="115.226562" y="672" xlink:href="#q"/>
  <use x="154.152344" y="672" xlink:href="#b"/>
  <use x="167.535156" y="672" xlink:href="#p"/>
  <use x="187.46875" y="672" xlink:href="#a"/>
  <use x="216.207031" y="672" xlink:href="#o"/>
  <use x="239.640625" y="672" xlink:href="#d"/>
  <use x="258.878906" y="672" xlink:href="#n"/>
  <use x="278.8125" y="672" xlink:href="#g"/>
  <use x="308.492188" y="672" xlink:href="#f"/>
  <use x="329.015625" y="672" xlink:href="#c"/>
  <use x="342.820312" y="672" xlink:href="#d"/>
  <use x="362.058594" y="672" xlink:href="#m"/>
  <use x="371.65625" y="672" xlink:href="#a"/>
  <use x="390.648438" y="672" xlink:href="#l"/>
  <use x="407.242188" y="672" xlink:href="#b"/>
 </g>
</svg>
